<?xml version="1.0" encoding="UTF-8" standalone="no"?>
<svg
   width="512"
   height="512"
   viewBox="0 0 512 512"
   fill="none"
   version="1.1"
   id="svg10"
   sodipodi:docname="penguin.svg"
   inkscape:version="1.4 (86a8ad7, 2024-10-11)"
   xmlns:inkscape="http://www.inkscape.org/namespaces/inkscape"
   xmlns:sodipodi="http://sodipodi.sourceforge.net/DTD/sodipodi-0.dtd"
   xmlns="http://www.w3.org/2000/svg"
   xmlns:svg="http://www.w3.org/2000/svg">
  <defs
     id="defs10" />
  <sodipodi:namedview
     id="namedview10"
     pagecolor="#ffffff"
     bordercolor="#000000"
     borderopacity="0.25"
     inkscape:showpageshadow="2"
     inkscape:pageopacity="0.0"
     inkscape:pagecheckerboard="0"
     inkscape:deskcolor="#d1d1d1"
     showgrid="false"
     inkscape:zoom="2.3730469"
     inkscape:cx="197.42551"
     inkscape:cy="245.88642"
     inkscape:window-width="2560"
     inkscape:window-height="1411"
     inkscape:window-x="3191"
     inkscape:window-y="-9"
     inkscape:window-maximized="1"
     inkscape:current-layer="svg10" />
  <!-- 1. The Body: Leaning slightly forward (Right) for energy -->
  <!-- A "squircle" shape that is rotated slightly -->
  <path
     d="m 124.74677,256.25631 c -19.92389,-1.74311 -58.028566,-25.15324 -54.542336,-65.00102 2.614672,-29.88585 31.628956,-17.30923 59.771686,5.22934"
     fill="#1a1a1a"
     id="path1" />
  <rect
     x="131.33771"
     y="56.713974"
     width="292"
     height="340"
     rx="140"
     fill="#1a1a1a"
     id="rect1"
     transform="rotate(5)" />
  <rect
     x="171.33771"
     y="126.71397"
     width="212"
     height="230"
     rx="100"
     fill="#ffffff"
     id="rect2"
     transform="rotate(5)" />
  <circle
     cx="211.33771"
     cy="166.71397"
     r="18"
     fill="#1a1a1a"
     id="circle2"
     transform="rotate(5)" />
  <circle
     cx="215.33771"
     cy="162.71397"
     r="6"
     fill="#ffffff"
     id="circle3"
     transform="rotate(5)" />
  <circle
     cx="341.33771"
     cy="166.71397"
     r="18"
     fill="#1a1a1a"
     id="circle4"
     transform="rotate(5)" />
  <circle
     cx="345.33771"
     cy="162.71397"
     r="6"
     fill="#ffffff"
     id="circle5"
     transform="rotate(5)" />
  <circle
     cx="200.41565"
     cy="208.61002"
     r="25"
     fill="#ff8a80"
     opacity="0.6"
     id="circle6"
     transform="rotate(5)" />
  <circle
     cx="356.94547"
     cy="209.36551"
     r="25"
     fill="#ff8a80"
     opacity="0.6"
     id="circle7"
     transform="rotate(5)" />
  <path
     d="m 244.07005,208.78055 q 15.3787,-3.67364 29.88584,2.61467 l -16.68604,18.61656 z"
     fill="#ffa726"
     id="path7" />
  <path
     d="m 171.73891,398.97236 c 0,0 -18.07611,37.05744 11.27199,43.2775 19.5654,4.1467 25.78546,-25.20139 25.78546,-25.20139"
     fill="#ffa726"
     id="path8" />
  <path
     d="m 289.84205,420.54953 c 0,0 14.40911,38.63129 39.13547,21.64287 16.48426,-11.3256 -0.50416,-36.05198 -0.50416,-36.05198"
     fill="#ffa726"
     id="path9" />
  <!-- 2. The Pointing Arm (The "Hand") -->
  <!-- This is outside the rotation group to ensure it points clearly Forward/Right -->
  <!-- It overlaps the body to create depth (reaching out) -->
  <path
     d="m 384.68376,252.14267 c 34.92296,6.26729 46.82634,-12.75016 59.59926,-26.92171 2.39654,-2.65897 6.71055,-8.83566 10.01688,-14.50173 5.10571,-8.74967 8.51352,-18.6075 5.82627,-24.58181 -5.44439,-12.10401 -14.42713,-14.53247 -27.27401,-1.6856 -25.69375,25.69376 -57.81096,38.54064 -57.81096,38.54064"
     fill="#1a1a1a"
     stroke="#1a1a1a"
     stroke-width="6.42345"
     stroke-linejoin="round"
     id="path10"
     sodipodi:nodetypes="cssssc" />
</svg>
