<svg width="400" height="300" xmlns="http://www.w3.org/2000/svg">
  <defs>
    <linearGradient id="paintSky" x1="0%" y1="0%" x2="0%" y2="100%">
      <stop offset="0%" style="stop-color:#FF9966;stop-opacity:1" />
      <stop offset="40%" style="stop-color:#FFCC99;stop-opacity:1" />
      <stop offset="70%" style="stop-color:#FFE5CC;stop-opacity:1" />
      <stop offset="100%" style="stop-color:#FFF5E6;stop-opacity:1" />
    </linearGradient>
  </defs>
  <rect width="400" height="300" fill="url(#paintSky)"/>
  <ellipse cx="320" cy="80" rx="45" ry="45" fill="#FF6B35" opacity="0.9"/>
  <ellipse cx="320" cy="80" rx="35" ry="35" fill="#FF8C42" opacity="0.8"/>
  <path d="M0,200 Q50,180 100,195 Q150,210 200,190 Q250,170 300,200 Q350,230 400,195 L400,300 L0,300 Z" fill="#2D5016" opacity="0.9"/>
  <path d="M0,220 Q60,200 120,215 Q180,230 240,210 Q300,190 360,220 Q380,230 400,215 L400,300 L0,300 Z" fill="#3D6B1E" opacity="0.85"/>
  <path d="M0,240 Q70,225 140,240 Q210,255 280,235 Q350,215 400,245 L400,300 L0,300 Z" fill="#4A7C23" opacity="0.8"/>
  <path d="M150,200 L150,140 Q155,135 160,140 Q165,145 165,140 Q170,135 175,142 L175,200" fill="#5D3A1A" opacity="0.9"/>
  <ellipse cx="162" cy="120" rx="40" ry="35" fill="#228B22" opacity="0.85"/>
  <ellipse cx="145" cy="130" rx="25" ry="22" fill="#2E8B2E" opacity="0.8"/>
  <ellipse cx="180" cy="125" rx="28" ry="25" fill="#32CD32" opacity="0.75"/>
  <ellipse cx="160" cy="105" rx="20" ry="18" fill="#3CB371" opacity="0.7"/>
  <path d="M280,220 L280,170 Q283,167 286,172 L286,220" fill="#4A3520" opacity="0.85"/>
  <ellipse cx="283" cy="155" rx="25" ry="22" fill="#228B22" opacity="0.8"/>
  <ellipse cx="270" cy="162" rx="18" ry="16" fill="#2E8B2E" opacity="0.75"/>
  <ellipse cx="295" cy="158" rx="20" ry="18" fill="#32CD32" opacity="0.7"/>
  <ellipse cx="50" cy="60" rx="35" ry="18" fill="#FFE4C4" opacity="0.6"/>
  <ellipse cx="75" cy="55" rx="28" ry="15" fill="#FFEFD5" opacity="0.5"/>
  <ellipse cx="130" cy="45" rx="40" ry="20" fill="#FFE4C4" opacity="0.5"/>
  <ellipse cx="160" cy="40" rx="30" ry="16" fill="#FFEFD5" opacity="0.4"/>
</svg>