<svg width="400" height="300" xmlns="http://www.w3.org/2000/svg">
  <defs>
    <linearGradient id="absBg" x1="0%" y1="0%" x2="100%" y2="100%">
      <stop offset="0%" style="stop-color:#1A1A2E;stop-opacity:1" />
      <stop offset="100%" style="stop-color:#16213E;stop-opacity:1" />
    </linearGradient>
  </defs>
  <rect width="400" height="300" fill="url(#absBg)"/>
  <circle cx="100" cy="80" r="60" fill="#E74C3C" opacity="0.8"/>
  <circle cx="140" cy="100" r="45" fill="#F39C12" opacity="0.7"/>
  <circle cx="80" cy="120" r="35" fill="#9B59B6" opacity="0.6"/>
  <rect x="220" y="40" width="120" height="80" fill="#3498DB" opacity="0.8" transform="rotate(15, 280, 80)"/>
  <rect x="250" y="60" width="80" height="60" fill="#2ECC71" opacity="0.7" transform="rotate(-10, 290, 90)"/>
  <polygon points="50,200 120,280 180,200 150,250 80,250" fill="#E91E63" opacity="0.75"/>
  <polygon points="200,180 280,280 360,180 320,230 240,230" fill="#00BCD4" opacity="0.7"/>
  <path d="M300,150 Q350,100 380,160 Q360,200 300,180 Q280,160 300,150" fill="#FF9800" opacity="0.65"/>
  <line x1="30" y1="150" x2="180" y2="170" stroke="#FFFFFF" stroke-width="2" opacity="0.4"/>
  <line x1="220" y1="140" x2="380" y2="120" stroke="#FFFFFF" stroke-width="2" opacity="0.3"/>
  <circle cx="200" cy="150" r="25" fill="none" stroke="#FFFFFF" stroke-width="3" opacity="0.5"/>
  <circle cx="200" cy="150" r="15" fill="none" stroke="#FFFFFF" stroke-width="2" opacity="0.4"/>
  <circle cx="350" cy="250" r="8" fill="#FFEB3B" opacity="0.8"/>
  <circle cx="60" cy="260" r="6" fill="#4CAF50" opacity="0.7"/>
  <circle cx="380" cy="60" r="5" fill="#FF5722" opacity="0.6"/>
</svg>