<svg width="400" height="300" xmlns="http://www.w3.org/2000/svg">
  <defs>
    <radialGradient id="mystBg" cx="50%" cy="30%">
      <stop offset="0%" style="stop-color:#2D1B4E;stop-opacity:1" />
      <stop offset="100%" style="stop-color:#0D0D1A;stop-opacity:1" />
    </radialGradient>
    <radialGradient id="mystMoon" cx="40%" cy="40%">
      <stop offset="0%" style="stop-color:#E8E8E8;stop-opacity:1" />
      <stop offset="100%" style="stop-color:#C0C0C0;stop-opacity:1" />
    </radialGradient>
    <radialGradient id="mystGlow" cx="50%" cy="50%">
      <stop offset="0%" style="stop-color:#9B59B6;stop-opacity:0.4" />
      <stop offset="100%" style="stop-color:#9B59B6;stop-opacity:0" />
    </radialGradient>
  </defs>
  <rect width="400" height="300" fill="url(#mystBg)"/>
  <circle cx="300" cy="70" r="35" fill="url(#mystMoon)"/>
  <circle cx="300" cy="70" r="60" fill="url(#mystGlow)"/>
  <circle cx="290" cy="60" r="5" fill="#A0A0A0" opacity="0.5"/>
  <circle cx="310" cy="75" r="4" fill="#A0A0A0" opacity="0.4"/>
  <circle cx="295" cy="80" r="3" fill="#A0A0A0" opacity="0.3"/>
  <rect x="0" y="220" width="400" height="80" fill="#0A0A12"/>
  <path d="M0,220 Q50,210 100,225 Q150,240 200,215 Q250,190 300,220 Q350,250 400,210 L400,220 L0,220 Z" fill="#1A1A2E" opacity="0.8"/>
  <path d="M80,300 L80,180 Q85,175 90,180 L90,300" fill="#1A1A2E"/>
  <path d="M60,200 Q80,160 100,200" stroke="#2D1B4E" stroke-width="8" fill="none"/>
  <path d="M50,210 Q80,170 110,210" stroke="#1A1A2E" stroke-width="6" fill="none"/>
  <path d="M200,300 L200,200 Q205,195 210,200 L210,300" fill="#1A1A2E"/>
  <path d="M180,220 Q200,180 220,220" stroke="#2D1B4E" stroke-width="8" fill="none"/>
  <path d="M170,230 Q200,190 230,230" stroke="#1A1A2E" stroke-width="6" fill="none"/>
  <path d="M320,300 L320,210 Q325,205 330,210 L330,300" fill="#1A1A2E"/>
  <path d="M300,230 Q320,190 340,230" stroke="#2D1B4E" stroke-width="8" fill="none"/>
  <circle cx="50" cy="50" r="1" fill="#FFFFFF" opacity="0.8"/>
  <circle cx="120" cy="80" r="1.5" fill="#FFFFFF" opacity="0.6"/>
  <circle cx="180" cy="40" r="1" fill="#FFFFFF" opacity="0.7"/>
  <circle cx="220" cy="100" r="1" fill="#FFFFFF" opacity="0.5"/>
  <circle cx="380" cy="30" r="1.5" fill="#FFFFFF" opacity="0.7"/>
  <circle cx="350" cy="120" r="1" fill="#FFFFFF" opacity="0.6"/>
  <circle cx="60" cy="130" r="1" fill="#FFFFFF" opacity="0.5"/>
  <circle cx="150" cy="150" r="1.5" fill="#FFFFFF" opacity="0.4"/>
</svg>