<svg width="400" height="300" xmlns="http://www.w3.org/2000/svg">
  <defs>
    <linearGradient id="asymBg" x1="0%" y1="0%" x2="100%" y2="0%">
      <stop offset="0%" style="stop-color:#F5F5F5;stop-opacity:1" />
      <stop offset="100%" style="stop-color:#E0E0E0;stop-opacity:1" />
    </linearGradient>
  </defs>
  <rect width="400" height="300" fill="url(#asymBg)"/>
  <rect x="20" y="40" width="180" height="140" fill="#2C3E50" opacity="0.9"/>
  <rect x="30" y="50" width="160" height="120" fill="#34495E"/>
  <polygon points="110,60 170,150 50,150" fill="#E74C3C" opacity="0.8"/>
  <circle cx="80" cy="90" r="20" fill="#F1C40F" opacity="0.9"/>
  <rect x="280" y="180" width="100" height="100" fill="#3498DB" opacity="0.85"/>
  <circle cx="330" cy="230" r="35" fill="#2980B9" opacity="0.7"/>
  <circle cx="330" cy="230" r="20" fill="#1ABC9C" opacity="0.8"/>
  <circle cx="320" cy="80" r="50" fill="#9B59B6" opacity="0.7"/>
  <circle cx="320" cy="80" r="30" fill="#8E44AD" opacity="0.8"/>
  <rect x="60" y="220" width="80" height="50" fill="#27AE60" opacity="0.8"/>
  <polygon points="60,220 100,190 140,220" fill="#2ECC71" opacity="0.9"/>
  <line x1="220" y1="100" x2="260" y2="140" stroke="#E74C3C" stroke-width="3" stroke-linecap="round"/>
  <line x1="220" y1="140" x2="260" y2="100" stroke="#E74C3C" stroke-width="3" stroke-linecap="round"/>
  <circle cx="180" cy="260" r="15" fill="#F39C12" opacity="0.7"/>
  <circle cx="240" cy="40" r="12" fill="#1ABC9C" opacity="0.6"/>
</svg>