<svg width="400" height="300" xmlns="http://www.w3.org/2000/svg">
  <defs>
    <linearGradient id="symSky" x1="0%" y1="0%" x2="0%" y2="100%">
      <stop offset="0%" style="stop-color:#1E3C72;stop-opacity:1" />
      <stop offset="100%" style="stop-color:#2A5298;stop-opacity:1" />
    </linearGradient>
    <linearGradient id="symWater" x1="0%" y1="0%" x2="0%" y2="100%">
      <stop offset="0%" style="stop-color:#2A5298;stop-opacity:1" />
      <stop offset="100%" style="stop-color:#1E3C72;stop-opacity:1" />
    </linearGradient>
  </defs>
  <rect width="400" height="300" fill="url(#symSky)"/>
  <rect x="0" y="150" width="400" height="150" fill="url(#symWater)"/>
  <line x1="200" y1="0" x2="200" y2="300" stroke="#FFFFFF" stroke-width="1" stroke-dasharray="6,4" opacity="0.3"/>
  <line x1="0" y1="150" x2="400" y2="150" stroke="#87CEEB" stroke-width="1" opacity="0.5"/>
  <polygon points="140,150 200,60 260,150" fill="#4A5568"/>
  <polygon points="200,60 210,50 220,60" fill="#FFFFFF"/>
  <polygon points="140,150 200,240 260,150" fill="#3D4A5C" opacity="0.6"/>
  <polygon points="60,150 100,100 140,150" fill="#5A6A7A"/>
  <polygon points="60,150 100,200 140,150" fill="#4A5A6A" opacity="0.5"/>
  <polygon points="260,150 300,100 340,150" fill="#5A6A7A"/>
  <polygon points="260,150 300,200 340,150" fill="#4A5A6A" opacity="0.5"/>
  <circle cx="200" cy="40" r="25" fill="#F1C40F" opacity="0.9"/>
  <circle cx="200" cy="260" r="20" fill="#F1C40F" opacity="0.4"/>
  <ellipse cx="200" cy="160" rx="150" ry="5" fill="#87CEEB" opacity="0.3"/>
  <ellipse cx="200" cy="175" rx="120" ry="4" fill="#87CEEB" opacity="0.2"/>
</svg>